<svg width="600" height="600" viewBox="0 0 600 600" fill="none" xmlns="http://www.w3.org/2000/svg">
<path opacity="0.2" fill-rule="evenodd" clip-rule="evenodd" d="M295.098 7.51323C363.664 24.2404 384.369 100.67 440.313 139.135C488.532 172.289 581.528 164.066 597.925 215.727C615.212 270.195 519.016 307.606 511.605 363.757C503.817 422.773 585.011 480.327 555.917 534.02C528.532 584.558 447.578 598.087 383.617 599.957C325.559 601.654 282.722 552.379 225.491 543.68C156.664 533.218 68.3672 588.887 20.1561 544.712C-27.1325 501.383 21.8559 427.965 35.0926 369.222C44.4448 327.718 79.0842 294.958 85.8713 253.075C96.8046 185.606 39.7982 107.448 86.3701 52.7882C130.063 1.50778 224.623 -9.67949 295.098 7.51323Z" fill="#1543DB"/>
</svg>
